<svg xmlns="http://www.w3.org/2000/svg" xmlns:xlink="http://www.w3.org/1999/xlink" width="1080" zoomAndPan="magnify" viewBox="0 0 810 809.999993" height="1080" preserveAspectRatio="xMidYMid meet" version="1.0"><defs><clipPath id="8a17a69afe"><path d="M 15 78 L 795 78 L 795 741.996094 L 15 741.996094 Z M 15 78 " clip-rule="nonzero"/></clipPath></defs><g clip-path="url(#8a17a69afe)"><path fill="#ffffff" d="M 405 742.699219 L 387.539062 729.867188 C 329.699219 686.109375 274.058594 639.714844 220.613281 590.683594 C 167.171875 541.648438 116.164062 490.203125 67.597656 436.335938 C 64.582031 433.09375 61.679688 429.753906 58.894531 426.3125 C 56.105469 422.875 53.441406 419.34375 50.890625 415.722656 C 48.34375 412.101562 45.921875 408.398438 43.628906 404.613281 C 41.332031 400.824219 39.167969 396.964844 37.136719 393.035156 C 35.101562 389.101562 33.207031 385.101562 31.445312 381.042969 C 29.683594 376.980469 28.0625 372.863281 26.582031 368.691406 C 25.097656 364.519531 23.761719 360.300781 22.566406 356.035156 C 21.371094 351.773438 20.324219 347.476562 19.421875 343.140625 C 18.519531 338.804688 17.765625 334.445312 17.160156 330.058594 C 16.554688 325.675781 16.097656 321.273438 15.792969 316.855469 C 15.484375 312.441406 15.328125 308.019531 15.324219 303.589844 C 15.316406 299.164062 15.460938 294.742188 15.757812 290.324219 C 16.050781 285.90625 16.496094 281.503906 17.089844 277.117188 C 17.683594 272.730469 18.425781 268.367188 19.316406 264.03125 C 20.210938 259.691406 21.246094 255.390625 22.429688 251.125 C 23.613281 246.859375 24.941406 242.636719 26.410156 238.460938 C 28.066406 233.578125 29.878906 228.753906 31.847656 223.992188 C 33.820312 219.226562 35.941406 214.53125 38.214844 209.902344 C 40.492188 205.277344 42.914062 200.730469 45.484375 196.261719 C 48.054688 191.792969 50.769531 187.410156 53.625 183.117188 C 56.480469 178.824219 59.472656 174.628906 62.601562 170.53125 C 65.730469 166.433594 68.988281 162.441406 72.378906 158.554688 C 75.765625 154.667969 79.277344 150.898438 82.910156 147.238281 C 86.542969 143.582031 90.292969 140.042969 94.15625 136.628906 C 98.019531 133.214844 101.988281 129.929688 106.066406 126.773438 C 110.140625 123.617188 114.316406 120.597656 118.589844 117.714844 C 122.863281 114.828125 127.226562 112.085938 131.679688 109.484375 C 136.128906 106.886719 140.660156 104.433594 145.273438 102.125 C 149.882812 99.820312 154.566406 97.664062 159.316406 95.664062 C 164.066406 93.660156 168.878906 91.816406 173.75 90.128906 C 178.621094 88.4375 183.542969 86.910156 188.511719 85.539062 C 193.484375 84.171875 198.492188 82.964844 203.542969 81.921875 C 275.320312 68.191406 345.90625 92.070312 405 149.371094 C 463.945312 92.070312 534.53125 68.191406 606.308594 81.921875 C 611.355469 82.964844 616.367188 84.171875 621.335938 85.539062 C 626.308594 86.910156 631.230469 88.4375 636.101562 90.128906 C 640.972656 91.816406 645.785156 93.660156 650.535156 95.664062 C 655.285156 97.664062 659.96875 99.820312 664.578125 102.125 C 669.191406 104.433594 673.722656 106.886719 678.171875 109.484375 C 682.625 112.085938 686.988281 114.828125 691.261719 117.714844 C 695.535156 120.597656 699.707031 123.617188 703.785156 126.773438 C 707.863281 129.929688 711.832031 133.214844 715.695312 136.628906 C 719.558594 140.042969 723.308594 143.582031 726.941406 147.238281 C 730.574219 150.898438 734.085938 154.667969 737.472656 158.554688 C 740.863281 162.441406 744.121094 166.433594 747.25 170.53125 C 750.378906 174.628906 753.371094 178.824219 756.226562 183.117188 C 759.082031 187.410156 761.792969 191.792969 764.363281 196.261719 C 766.9375 200.730469 769.359375 205.277344 771.632812 209.902344 C 773.910156 214.53125 776.03125 219.226562 778 223.992188 C 779.972656 228.753906 781.785156 233.578125 783.441406 238.460938 C 784.917969 242.636719 786.25 246.855469 787.4375 251.125 C 788.628906 255.390625 789.667969 259.691406 790.566406 264.027344 C 791.460938 268.363281 792.207031 272.726562 792.804688 277.113281 C 793.402344 281.503906 793.851562 285.90625 794.148438 290.324219 C 794.449219 294.742188 794.59375 299.167969 794.59375 303.59375 C 794.589844 308.023438 794.433594 312.445312 794.128906 316.863281 C 793.824219 321.28125 793.371094 325.683594 792.765625 330.070312 C 792.160156 334.457031 791.40625 338.820312 790.503906 343.15625 C 789.601562 347.492188 788.550781 351.792969 787.355469 356.054688 C 786.160156 360.320312 784.820312 364.539062 783.339844 368.710938 C 781.855469 372.882812 780.230469 377 778.46875 381.0625 C 776.703125 385.125 774.804688 389.121094 772.769531 393.054688 C 770.730469 396.988281 768.5625 400.847656 766.265625 404.628906 C 763.964844 408.414062 761.539062 412.117188 758.988281 415.738281 C 756.4375 419.355469 753.765625 422.886719 750.972656 426.324219 C 748.179688 429.757812 745.273438 433.097656 742.253906 436.335938 C 693.710938 490.269531 642.730469 541.785156 589.3125 590.894531 C 535.894531 640 480.277344 686.472656 422.460938 730.316406 Z M 243.089844 137.882812 C 233.554688 137.890625 224.101562 138.785156 214.734375 140.570312 C 210.980469 141.367188 207.253906 142.285156 203.554688 143.320312 C 199.855469 144.359375 196.195312 145.511719 192.574219 146.785156 C 188.953125 148.058594 185.371094 149.445312 181.839844 150.949219 C 178.304688 152.453125 174.824219 154.066406 171.394531 155.792969 C 167.964844 157.519531 164.59375 159.355469 161.28125 161.300781 C 157.96875 163.242188 154.722656 165.292969 151.542969 167.445312 C 148.363281 169.597656 145.257812 171.851562 142.222656 174.203125 C 139.1875 176.554688 136.230469 179.003906 133.351562 181.546875 C 130.476562 184.085938 127.683594 186.71875 124.972656 189.441406 C 122.265625 192.164062 119.648438 194.972656 117.121094 197.863281 C 114.59375 200.753906 112.160156 203.722656 109.824219 206.769531 C 107.488281 209.816406 105.25 212.9375 103.113281 216.128906 C 100.976562 219.316406 98.945312 222.574219 97.019531 225.898438 C 95.09375 229.21875 93.277344 232.597656 91.566406 236.039062 C 89.859375 239.476562 88.261719 242.964844 86.777344 246.507812 C 85.292969 250.050781 83.921875 253.632812 82.667969 257.265625 C 81.636719 260.203125 80.707031 263.175781 79.878906 266.179688 C 79.050781 269.183594 78.324219 272.210938 77.707031 275.265625 C 77.085938 278.320312 76.570312 281.390625 76.164062 284.480469 C 75.753906 287.570312 75.449219 290.667969 75.253906 293.777344 C 75.058594 296.886719 74.96875 300 74.984375 303.117188 C 75.003906 306.230469 75.128906 309.34375 75.359375 312.449219 C 75.589844 315.558594 75.929688 318.652344 76.371094 321.738281 C 76.816406 324.824219 77.363281 327.886719 78.019531 330.933594 C 78.675781 333.980469 79.433594 337 80.292969 339.996094 C 81.15625 342.988281 82.121094 345.949219 83.183594 348.878906 C 84.25 351.808594 85.414062 354.695312 86.679688 357.542969 C 87.941406 360.390625 89.300781 363.191406 90.757812 365.949219 C 92.214844 368.703125 93.761719 371.402344 95.40625 374.050781 C 97.046875 376.699219 98.777344 379.289062 100.597656 381.820312 C 102.414062 384.347656 104.320312 386.8125 106.308594 389.210938 C 108.296875 391.609375 110.367188 393.9375 112.515625 396.195312 C 157.269531 445.714844 204.0625 493.226562 252.902344 538.722656 C 301.738281 584.222656 352.4375 627.542969 405 668.683594 C 457.671875 627.5625 508.484375 584.265625 557.449219 538.792969 C 606.410156 493.320312 653.335938 445.835938 698.230469 396.34375 C 700.363281 394.074219 702.414062 391.730469 704.386719 389.320312 C 706.355469 386.90625 708.242188 384.429688 710.042969 381.890625 C 711.84375 379.347656 713.554688 376.75 715.175781 374.089844 C 716.800781 371.433594 718.328125 368.722656 719.765625 365.957031 C 721.203125 363.195312 722.542969 360.386719 723.789062 357.53125 C 725.03125 354.675781 726.175781 351.78125 727.222656 348.847656 C 728.265625 345.914062 729.210938 342.945312 730.054688 339.949219 C 730.894531 336.949219 731.632812 333.925781 732.269531 330.875 C 732.902344 327.828125 733.433594 324.757812 733.855469 321.675781 C 734.28125 318.589844 734.601562 315.492188 734.8125 312.382812 C 735.023438 309.277344 735.128906 306.167969 735.128906 303.050781 C 735.125 299.9375 735.019531 296.828125 734.804688 293.71875 C 734.589844 290.613281 734.269531 287.515625 733.839844 284.429688 C 733.414062 281.34375 732.882812 278.277344 732.246094 275.230469 C 731.605469 272.179688 730.867188 269.160156 730.019531 266.160156 C 729.175781 263.164062 728.230469 260.195312 727.183594 257.265625 C 725.9375 253.625 724.574219 250.027344 723.097656 246.476562 C 721.621094 242.925781 720.027344 239.421875 718.324219 235.972656 C 716.621094 232.523438 714.808594 229.132812 712.886719 225.800781 C 710.964844 222.46875 708.9375 219.199219 706.808594 215.996094 C 704.675781 212.796875 702.441406 209.664062 700.105469 206.609375 C 697.773438 203.550781 695.34375 200.570312 692.816406 197.667969 C 690.289062 194.765625 687.671875 191.949219 684.964844 189.214844 C 682.257812 186.484375 679.464844 183.839844 676.585938 181.289062 C 673.707031 178.734375 670.75 176.277344 667.714844 173.914062 C 664.679688 171.550781 661.570312 169.289062 658.386719 167.128906 C 655.203125 164.96875 651.957031 162.910156 648.640625 160.957031 C 645.328125 159.003906 641.953125 157.160156 638.519531 155.425781 C 635.085938 153.691406 631.597656 152.066406 628.0625 150.558594 C 624.523438 149.046875 620.9375 147.652344 617.3125 146.375 C 613.683594 145.09375 610.015625 143.933594 606.3125 142.890625 C 602.609375 141.847656 598.878906 140.921875 595.117188 140.121094 C 552.734375 132.210938 490.058594 137.882812 427.535156 212.496094 L 405 238.609375 L 382.316406 212.496094 C 332.625 152.804688 282.632812 137.882812 243.089844 137.882812 Z M 243.089844 137.882812 " fill-opacity="1" fill-rule="nonzero"/></g></svg>
