<svg xmlns="http://www.w3.org/2000/svg" xmlns:xlink="http://www.w3.org/1999/xlink" width="1080" zoomAndPan="magnify" viewBox="0 0 810 809.999993" height="1080" preserveAspectRatio="xMidYMid meet" version="1.0"><path fill="#ffffff" d="M 405 73.636719 C 221.992188 73.636719 73.636719 221.992188 73.636719 405 C 73.636719 588.007812 221.992188 736.363281 405 736.363281 C 588.007812 736.363281 736.363281 588.007812 736.363281 405 C 736.363281 221.992188 588.007812 73.636719 405 73.636719 Z M 0 405 C 0 181.324219 181.324219 0 405 0 C 628.675781 0 810 181.324219 810 405 C 810 628.675781 628.675781 810 405 810 C 181.324219 810 0 628.675781 0 405 Z M 0 405 " fill-opacity="1" fill-rule="evenodd"/><path fill="#ffffff" d="M 368.183594 282.273438 L 441.816406 282.273438 L 441.816406 650.457031 L 368.183594 650.457031 Z M 368.183594 282.273438 " fill-opacity="1" fill-rule="evenodd"/><path fill="#ffffff" d="M 368.183594 159.546875 L 441.816406 159.546875 L 441.816406 241.363281 L 368.183594 241.363281 Z M 368.183594 159.546875 " fill-opacity="1" fill-rule="evenodd"/></svg>