<svg xmlns="http://www.w3.org/2000/svg" xmlns:xlink="http://www.w3.org/1999/xlink" width="1080" zoomAndPan="magnify" viewBox="0 0 810 809.999993" height="1080" preserveAspectRatio="xMidYMid meet" version="1.0"><path fill="#7c8591" d="M 405 809.996094 C 296.820312 809.996094 195.117188 767.871094 118.621094 691.375 C 42.128906 614.882812 0 513.175781 0 405 C 0 296.820312 42.128906 195.117188 118.621094 118.621094 C 195.117188 42.128906 296.820312 0 405 0 C 513.175781 0 614.878906 42.128906 691.375 118.621094 C 767.867188 195.117188 809.996094 296.820312 809.996094 405 C 809.996094 465.25 793.105469 521.128906 792.324219 523.667969 C 785.582031 545.742188 776.886719 567.359375 766.457031 587.988281 L 806.144531 788.648438 C 806.925781 792.605469 805.707031 796.695312 802.886719 799.578125 C 800.0625 802.464844 796 803.765625 792.027344 803.074219 L 586.53125 767.050781 C 564.789062 777.996094 541.976562 786.992188 518.652344 793.8125 C 516.367188 794.476562 462.414062 809.996094 405 809.996094 Z M 405 809.996094 " fill-opacity="1" fill-rule="nonzero"/></svg>