<svg xmlns="http://www.w3.org/2000/svg" xmlns:xlink="http://www.w3.org/1999/xlink" width="1080" zoomAndPan="magnify" viewBox="0 0 810 809.999993" height="1080" preserveAspectRatio="xMidYMid meet" version="1.0"><defs><clipPath id="819459e4b8"><path d="M 41 122 L 222 122 L 222 281.289062 L 41 281.289062 Z M 41 122 " clip-rule="nonzero"/></clipPath><clipPath id="c9e9fc8bb3"><path d="M 280.65625 168.640625 L 776.929688 168.640625 L 776.929688 225.855469 L 280.65625 225.855469 Z M 280.65625 168.640625 " clip-rule="nonzero"/></clipPath><clipPath id="e127baf68c"><path d="M 41 328 L 222 328 L 222 487.257812 L 41 487.257812 Z M 41 328 " clip-rule="nonzero"/></clipPath><clipPath id="406fe67b7a"><path d="M 280.65625 374.613281 L 776.929688 374.613281 L 776.929688 431.824219 L 280.65625 431.824219 Z M 280.65625 374.613281 " clip-rule="nonzero"/></clipPath><clipPath id="f7a338f3b0"><path d="M 41 538 L 222 538 L 222 696.792969 L 41 696.792969 Z M 41 538 " clip-rule="nonzero"/></clipPath><clipPath id="1dca5312f1"><path d="M 280.65625 584.144531 L 776.929688 584.144531 L 776.929688 641.359375 L 280.65625 641.359375 Z M 280.65625 584.144531 " clip-rule="nonzero"/></clipPath></defs><g clip-path="url(#819459e4b8)"><path fill="#7c8591" d="M 220.785156 162.761719 C 210.65625 110.679688 147.191406 109.808594 131.542969 158.496094 C 115.894531 109.8125 52.425781 110.679688 42.300781 162.761719 C 33.117188 210.011719 131.542969 284.5625 131.542969 284.5625 C 131.542969 284.5625 229.96875 210.011719 220.785156 162.761719 Z M 220.785156 162.761719 " fill-opacity="1" fill-rule="nonzero"/></g><g clip-path="url(#c9e9fc8bb3)"><path fill="#7c8591" d="M 280.65625 168.640625 L 776.929688 168.640625 L 776.929688 225.855469 L 280.65625 225.855469 Z M 280.65625 168.640625 " fill-opacity="1" fill-rule="nonzero"/></g><g clip-path="url(#e127baf68c)"><path fill="#7c8591" d="M 220.785156 368.734375 C 210.65625 316.652344 147.191406 315.78125 131.542969 364.46875 C 115.894531 315.78125 52.425781 316.652344 42.300781 368.734375 C 33.117188 415.984375 131.542969 490.53125 131.542969 490.53125 C 131.542969 490.53125 229.96875 415.984375 220.785156 368.734375 Z M 220.785156 368.734375 " fill-opacity="1" fill-rule="nonzero"/></g><g clip-path="url(#406fe67b7a)"><path fill="#7c8591" d="M 280.65625 374.613281 L 776.929688 374.613281 L 776.929688 431.824219 L 280.65625 431.824219 Z M 280.65625 374.613281 " fill-opacity="1" fill-rule="nonzero"/></g><g clip-path="url(#f7a338f3b0)"><path fill="#7c8591" d="M 220.785156 578.265625 C 210.65625 526.1875 147.191406 525.316406 131.542969 574.003906 C 115.894531 525.316406 52.425781 526.1875 42.300781 578.265625 C 33.117188 625.519531 131.542969 700.066406 131.542969 700.066406 C 131.542969 700.066406 229.96875 625.519531 220.785156 578.265625 Z M 220.785156 578.265625 " fill-opacity="1" fill-rule="nonzero"/></g><g clip-path="url(#1dca5312f1)"><path fill="#7c8591" d="M 280.65625 584.144531 L 776.929688 584.144531 L 776.929688 641.359375 L 280.65625 641.359375 Z M 280.65625 584.144531 " fill-opacity="1" fill-rule="nonzero"/></g></svg>