<svg xmlns="http://www.w3.org/2000/svg" xmlns:xlink="http://www.w3.org/1999/xlink" width="1080" zoomAndPan="magnify" viewBox="0 0 810 809.999993" height="1080" preserveAspectRatio="xMidYMid meet" version="1.0"><path fill="#7c8591" d="M 691.367188 118.621094 C 614.875 42.125 513.171875 0 404.992188 0 C 296.816406 0 195.113281 42.125 118.621094 118.621094 C 42.125 195.113281 0 296.816406 0 404.992188 C 0 513.171875 42.125 614.875 118.621094 691.367188 C 195.113281 767.859375 296.816406 809.988281 404.992188 809.988281 C 513.171875 809.988281 614.875 767.859375 691.367188 691.367188 C 767.859375 614.875 809.988281 513.171875 809.988281 404.992188 C 809.988281 296.816406 767.859375 195.113281 691.367188 118.621094 Z M 136.996094 136.996094 C 208.582031 65.414062 303.757812 25.988281 404.992188 25.988281 C 506.230469 25.988281 601.40625 65.414062 672.988281 136.996094 C 744.574219 208.582031 783.996094 303.757812 783.996094 404.992188 C 783.996094 489.148438 756.730469 569.105469 706.414062 634.816406 C 666.371094 578.824219 602.429688 545.746094 532.992188 545.746094 L 276.996094 545.746094 C 207.554688 545.746094 143.613281 578.824219 103.570312 634.816406 C 53.257812 569.105469 25.988281 489.148438 25.988281 404.992188 C 25.988281 303.757812 65.414062 208.582031 136.996094 136.996094 Z M 404.992188 524.398438 C 509.046875 524.398438 593.703125 439.742188 593.703125 335.6875 C 593.703125 231.632812 509.046875 146.980469 404.992188 146.980469 C 300.941406 146.980469 216.285156 231.632812 216.285156 335.6875 C 216.285156 439.742188 300.941406 524.398438 404.992188 524.398438 Z M 404.992188 524.398438 " fill-opacity="1" fill-rule="nonzero"/></svg>