<svg xmlns="http://www.w3.org/2000/svg" xmlns:xlink="http://www.w3.org/1999/xlink" width="1080" zoomAndPan="magnify" viewBox="0 0 810 809.999993" height="1080" preserveAspectRatio="xMidYMid meet" version="1.0"><path fill="#7c8591" d="M 405 810 C 398.371094 810 391.746094 809.835938 385.128906 809.511719 C 378.507812 809.1875 371.898438 808.699219 365.304688 808.050781 C 358.707031 807.398438 352.128906 806.589844 345.574219 805.617188 C 339.019531 804.644531 332.488281 803.511719 325.988281 802.21875 C 319.488281 800.925781 313.023438 799.472656 306.59375 797.863281 C 300.164062 796.253906 293.777344 794.484375 287.433594 792.5625 C 281.09375 790.636719 274.800781 788.558594 268.558594 786.324219 C 262.320312 784.09375 256.136719 781.707031 250.011719 779.171875 C 243.890625 776.632812 237.832031 773.949219 231.839844 771.117188 C 225.847656 768.28125 219.929688 765.300781 214.085938 762.179688 C 208.238281 759.054688 202.472656 755.789062 196.789062 752.378906 C 191.101562 748.972656 185.503906 745.425781 179.992188 741.746094 C 174.484375 738.0625 169.066406 734.246094 163.742188 730.300781 C 158.417969 726.351562 153.195312 722.273438 148.070312 718.070312 C 142.945312 713.863281 137.929688 709.535156 133.019531 705.085938 C 128.109375 700.632812 123.308594 696.066406 118.621094 691.378906 C 113.933594 686.691406 109.367188 681.890625 104.914062 676.980469 C 100.464844 672.070312 96.136719 667.054688 91.929688 661.929688 C 87.726562 656.804688 83.648438 651.582031 79.699219 646.257812 C 75.753906 640.933594 71.9375 635.515625 68.253906 630.003906 C 64.574219 624.496094 61.027344 618.898438 57.621094 613.210938 C 54.210938 607.527344 50.945312 601.761719 47.820312 595.914062 C 44.699219 590.070312 41.71875 584.152344 38.882812 578.160156 C 36.050781 572.167969 33.367188 566.109375 30.828125 559.988281 C 28.292969 553.863281 25.90625 547.679688 23.675781 541.441406 C 21.441406 535.199219 19.363281 528.90625 17.4375 522.566406 C 15.515625 516.222656 13.746094 509.835938 12.136719 503.40625 C 10.527344 496.976562 9.074219 490.511719 7.78125 484.011719 C 6.488281 477.511719 5.355469 470.980469 4.382812 464.425781 C 3.410156 457.871094 2.601562 451.292969 1.949219 444.695312 C 1.300781 438.101562 0.8125 431.492188 0.488281 424.871094 C 0.164062 418.253906 0 411.628906 0 405 C 0 398.371094 0.164062 391.746094 0.488281 385.128906 C 0.8125 378.507812 1.300781 371.898438 1.949219 365.304688 C 2.601562 358.707031 3.410156 352.128906 4.382812 345.574219 C 5.355469 339.019531 6.488281 332.488281 7.78125 325.988281 C 9.074219 319.488281 10.527344 313.023438 12.136719 306.59375 C 13.746094 300.164062 15.515625 293.777344 17.4375 287.433594 C 19.363281 281.09375 21.441406 274.800781 23.675781 268.558594 C 25.90625 262.320312 28.292969 256.136719 30.828125 250.011719 C 33.367188 243.890625 36.050781 237.832031 38.882812 231.839844 C 41.71875 225.847656 44.699219 219.929688 47.820312 214.085938 C 50.945312 208.238281 54.210938 202.472656 57.621094 196.789062 C 61.027344 191.101562 64.574219 185.503906 68.253906 179.992188 C 71.9375 174.484375 75.753906 169.066406 79.699219 163.742188 C 83.648438 158.417969 87.726562 153.195312 91.929688 148.070312 C 96.136719 142.945312 100.464844 137.929688 104.914062 133.019531 C 109.367188 128.109375 113.933594 123.308594 118.621094 118.621094 C 123.308594 113.933594 128.109375 109.367188 133.019531 104.914062 C 137.929688 100.464844 142.945312 96.136719 148.070312 91.929688 C 153.195312 87.726562 158.417969 83.648438 163.742188 79.699219 C 169.066406 75.753906 174.484375 71.9375 179.992188 68.253906 C 185.503906 64.574219 191.101562 61.027344 196.789062 57.621094 C 202.472656 54.210938 208.238281 50.945312 214.085938 47.820312 C 219.929688 44.699219 225.847656 41.71875 231.839844 38.882812 C 237.832031 36.050781 243.890625 33.367188 250.011719 30.828125 C 256.136719 28.292969 262.320312 25.90625 268.558594 23.675781 C 274.800781 21.441406 281.09375 19.363281 287.433594 17.4375 C 293.777344 15.515625 300.164062 13.746094 306.59375 12.136719 C 313.023438 10.527344 319.488281 9.074219 325.988281 7.78125 C 332.488281 6.488281 339.019531 5.355469 345.574219 4.382812 C 352.128906 3.410156 358.707031 2.601562 365.304688 1.949219 C 371.898438 1.300781 378.507812 0.8125 385.128906 0.488281 C 391.746094 0.164062 398.371094 0 405 0 C 411.628906 0 418.253906 0.164062 424.871094 0.488281 C 431.492188 0.8125 438.101562 1.300781 444.695312 1.949219 C 451.292969 2.601562 457.871094 3.410156 464.425781 4.382812 C 470.980469 5.355469 477.511719 6.488281 484.011719 7.78125 C 490.511719 9.074219 496.976562 10.527344 503.40625 12.136719 C 509.835938 13.746094 516.222656 15.515625 522.566406 17.4375 C 528.90625 19.363281 535.199219 21.441406 541.441406 23.675781 C 547.679688 25.90625 553.863281 28.292969 559.988281 30.828125 C 566.109375 33.367188 572.167969 36.050781 578.160156 38.882812 C 584.152344 41.71875 590.070312 44.699219 595.914062 47.820312 C 601.761719 50.945312 607.527344 54.210938 613.210938 57.621094 C 618.898438 61.027344 624.496094 64.574219 630.003906 68.253906 C 635.515625 71.9375 640.933594 75.753906 646.257812 79.699219 C 651.582031 83.648438 656.804688 87.726562 661.929688 91.929688 C 667.054688 96.136719 672.070312 100.464844 676.980469 104.914062 C 681.890625 109.367188 686.691406 113.933594 691.378906 118.621094 C 696.066406 123.308594 700.632812 128.109375 705.085938 133.019531 C 709.535156 137.929688 713.863281 142.945312 718.070312 148.070312 C 722.273438 153.195312 726.351562 158.417969 730.300781 163.742188 C 734.246094 169.066406 738.0625 174.484375 741.746094 179.992188 C 745.425781 185.503906 748.972656 191.101562 752.378906 196.789062 C 755.789062 202.472656 759.054688 208.238281 762.179688 214.085938 C 765.300781 219.929688 768.28125 225.847656 771.117188 231.839844 C 773.949219 237.832031 776.632812 243.890625 779.171875 250.011719 C 781.707031 256.136719 784.09375 262.320312 786.324219 268.558594 C 788.558594 274.800781 790.636719 281.09375 792.5625 287.433594 C 794.484375 293.777344 796.253906 300.164062 797.863281 306.59375 C 799.472656 313.023438 800.925781 319.488281 802.21875 325.988281 C 803.511719 332.488281 804.644531 339.019531 805.617188 345.574219 C 806.589844 352.128906 807.398438 358.707031 808.050781 365.304688 C 808.699219 371.898438 809.1875 378.507812 809.511719 385.128906 C 809.835938 391.746094 810 398.371094 810 405 C 809.992188 411.625 809.820312 418.246094 809.488281 424.867188 C 809.15625 431.484375 808.664062 438.089844 808.007812 444.683594 C 807.351562 451.277344 806.535156 457.847656 805.554688 464.402344 C 804.578125 470.957031 803.4375 477.480469 802.140625 483.980469 C 800.839844 490.476562 799.386719 496.9375 797.769531 503.363281 C 796.15625 509.789062 794.382812 516.171875 792.457031 522.511719 C 790.527344 528.851562 788.445312 535.140625 786.207031 541.378906 C 783.972656 547.613281 781.585938 553.792969 779.046875 559.914062 C 776.507812 566.035156 773.816406 572.089844 770.980469 578.078125 C 768.144531 584.066406 765.164062 589.980469 762.039062 595.824219 C 758.914062 601.664062 755.644531 607.425781 752.238281 613.109375 C 748.828125 618.792969 745.28125 624.386719 741.601562 629.894531 C 737.917969 635.402344 734.101562 640.816406 730.152344 646.140625 C 726.207031 651.460938 722.128906 656.679688 717.925781 661.800781 C 713.71875 666.925781 709.394531 671.9375 704.941406 676.847656 C 700.492188 681.757812 695.925781 686.554688 691.238281 691.242188 C 686.554688 695.925781 681.757812 700.492188 676.847656 704.941406 C 671.9375 709.394531 666.925781 713.71875 661.800781 717.925781 C 656.679688 722.128906 651.460938 726.207031 646.136719 730.152344 C 640.816406 734.101562 635.402344 737.917969 629.894531 741.601562 C 624.386719 745.28125 618.792969 748.828125 613.109375 752.238281 C 607.425781 755.644531 601.664062 758.914062 595.824219 762.039062 C 589.980469 765.164062 584.066406 768.144531 578.078125 770.980469 C 572.089844 773.816406 566.035156 776.507812 559.914062 779.046875 C 553.792969 781.585938 547.613281 783.972656 541.378906 786.207031 C 535.140625 788.445312 528.851562 790.527344 522.511719 792.457031 C 516.171875 794.382812 509.789062 796.15625 503.363281 797.769531 C 496.9375 799.386719 490.476562 800.839844 483.980469 802.140625 C 477.480469 803.4375 470.957031 804.578125 464.402344 805.554688 C 457.847656 806.535156 451.277344 807.351562 444.683594 808.007812 C 438.089844 808.664062 431.484375 809.15625 424.867188 809.488281 C 418.246094 809.820312 411.625 809.992188 405 810 Z M 405 35.21875 C 398.949219 35.21875 392.898438 35.367188 386.855469 35.664062 C 380.8125 35.960938 374.777344 36.40625 368.753906 36.996094 C 362.730469 37.589844 356.726562 38.332031 350.742188 39.21875 C 344.753906 40.109375 338.792969 41.140625 332.859375 42.324219 C 326.921875 43.503906 321.019531 44.828125 315.148438 46.300781 C 309.28125 47.769531 303.449219 49.382812 297.65625 51.140625 C 291.867188 52.898438 286.121094 54.792969 280.425781 56.832031 C 274.726562 58.871094 269.082031 61.050781 263.492188 63.367188 C 257.898438 65.679688 252.367188 68.132812 246.898438 70.71875 C 241.425781 73.308594 236.023438 76.027344 230.6875 78.882812 C 225.347656 81.734375 220.085938 84.714844 214.894531 87.828125 C 209.703125 90.9375 204.589844 94.175781 199.558594 97.535156 C 194.527344 100.898438 189.582031 104.382812 184.71875 107.988281 C 179.859375 111.59375 175.089844 115.316406 170.414062 119.152344 C 165.734375 122.992188 161.152344 126.945312 156.667969 131.007812 C 152.183594 135.074219 147.804688 139.246094 143.523438 143.523438 C 139.246094 147.804688 135.074219 152.183594 131.007812 156.667969 C 126.945312 161.152344 122.992188 165.734375 119.152344 170.414062 C 115.316406 175.089844 111.59375 179.859375 107.988281 184.722656 C 104.382812 189.582031 100.898438 194.527344 97.535156 199.558594 C 94.175781 204.589844 90.9375 209.703125 87.828125 214.894531 C 84.714844 220.085938 81.734375 225.347656 78.878906 230.6875 C 76.027344 236.023438 73.308594 241.425781 70.71875 246.898438 C 68.132812 252.367188 65.679688 257.898438 63.367188 263.492188 C 61.050781 269.082031 58.871094 274.726562 56.832031 280.425781 C 54.792969 286.121094 52.898438 291.867188 51.140625 297.65625 C 49.382812 303.449219 47.769531 309.28125 46.300781 315.148438 C 44.828125 321.019531 43.503906 326.921875 42.324219 332.859375 C 41.140625 338.792969 40.109375 344.753906 39.21875 350.742188 C 38.332031 356.726562 37.589844 362.730469 36.996094 368.753906 C 36.40625 374.777344 35.960938 380.8125 35.664062 386.855469 C 35.367188 392.898438 35.21875 398.949219 35.21875 405 C 35.21875 411.050781 35.367188 417.101562 35.664062 423.144531 C 35.960938 429.1875 36.40625 435.222656 36.996094 441.246094 C 37.589844 447.269531 38.332031 453.273438 39.21875 459.257812 C 40.109375 465.246094 41.140625 471.207031 42.324219 477.140625 C 43.503906 483.078125 44.828125 488.980469 46.300781 494.851562 C 47.769531 500.71875 49.382812 506.550781 51.140625 512.34375 C 52.898438 518.132812 54.792969 523.878906 56.832031 529.574219 C 58.871094 535.273438 61.050781 540.917969 63.367188 546.507812 C 65.679688 552.101562 68.132812 557.632812 70.71875 563.101562 C 73.308594 568.574219 76.027344 573.976562 78.878906 579.3125 C 81.734375 584.652344 84.714844 589.914062 87.828125 595.105469 C 90.9375 600.296875 94.175781 605.410156 97.535156 610.441406 C 100.898438 615.472656 104.382812 620.417969 107.988281 625.277344 C 111.59375 630.140625 115.316406 634.910156 119.152344 639.585938 C 122.992188 644.265625 126.945312 648.847656 131.007812 653.332031 C 135.074219 657.816406 139.246094 662.195312 143.523438 666.476562 C 147.804688 670.753906 152.183594 674.925781 156.667969 678.992188 C 161.152344 683.054688 165.734375 687.007812 170.414062 690.847656 C 175.089844 694.683594 179.859375 698.40625 184.71875 702.011719 C 189.582031 705.617188 194.527344 709.101562 199.558594 712.464844 C 204.589844 715.824219 209.703125 719.0625 214.894531 722.171875 C 220.085938 725.285156 225.347656 728.265625 230.6875 731.117188 C 236.023438 733.972656 241.425781 736.691406 246.898438 739.28125 C 252.367188 741.867188 257.898438 744.320312 263.488281 746.632812 C 269.082031 748.949219 274.726562 751.128906 280.425781 753.167969 C 286.121094 755.207031 291.867188 757.101562 297.65625 758.859375 C 303.449219 760.617188 309.28125 762.230469 315.148438 763.699219 C 321.019531 765.171875 326.921875 766.496094 332.859375 767.675781 C 338.792969 768.859375 344.753906 769.890625 350.742188 770.78125 C 356.726562 771.667969 362.730469 772.410156 368.753906 773.003906 C 374.777344 773.59375 380.8125 774.039062 386.855469 774.335938 C 392.898438 774.632812 398.949219 774.78125 405 774.78125 C 411.050781 774.78125 417.101562 774.632812 423.144531 774.335938 C 429.1875 774.039062 435.222656 773.59375 441.246094 773.003906 C 447.265625 772.410156 453.273438 771.667969 459.257812 770.78125 C 465.246094 769.890625 471.207031 768.859375 477.140625 767.675781 C 483.078125 766.496094 488.980469 765.171875 494.851562 763.699219 C 500.71875 762.230469 506.550781 760.617188 512.34375 758.859375 C 518.132812 757.101562 523.878906 755.207031 529.574219 753.167969 C 535.273438 751.128906 540.917969 748.949219 546.507812 746.632812 C 552.101562 744.320312 557.632812 741.867188 563.101562 739.28125 C 568.574219 736.691406 573.976562 733.972656 579.3125 731.117188 C 584.652344 728.265625 589.914062 725.285156 595.105469 722.171875 C 600.296875 719.0625 605.40625 715.824219 610.441406 712.464844 C 615.472656 709.101562 620.417969 705.617188 625.277344 702.011719 C 630.140625 698.40625 634.910156 694.683594 639.585938 690.847656 C 644.265625 687.007812 648.847656 683.054688 653.332031 678.992188 C 657.816406 674.925781 662.195312 670.753906 666.476562 666.476562 C 670.753906 662.195312 674.925781 657.816406 678.992188 653.332031 C 683.054688 648.847656 687.007812 644.265625 690.847656 639.585938 C 694.683594 634.910156 698.40625 630.140625 702.011719 625.277344 C 705.617188 620.417969 709.101562 615.472656 712.464844 610.441406 C 715.824219 605.410156 719.0625 600.296875 722.171875 595.105469 C 725.285156 589.914062 728.265625 584.652344 731.117188 579.3125 C 733.972656 573.976562 736.691406 568.574219 739.28125 563.101562 C 741.867188 557.632812 744.320312 552.101562 746.632812 546.507812 C 748.949219 540.917969 751.128906 535.273438 753.167969 529.574219 C 755.207031 523.878906 757.101562 518.132812 758.859375 512.34375 C 760.617188 506.550781 762.230469 500.71875 763.699219 494.851562 C 765.171875 488.980469 766.496094 483.078125 767.675781 477.140625 C 768.859375 471.207031 769.890625 465.246094 770.78125 459.257812 C 771.667969 453.273438 772.410156 447.269531 773.003906 441.246094 C 773.59375 435.222656 774.039062 429.1875 774.335938 423.144531 C 774.632812 417.101562 774.78125 411.050781 774.78125 405 C 774.777344 398.949219 774.621094 392.902344 774.316406 386.863281 C 774.015625 380.820312 773.5625 374.789062 772.964844 368.769531 C 772.367188 362.746094 771.621094 356.746094 770.726562 350.761719 C 769.835938 344.777344 768.796875 338.820312 767.609375 332.886719 C 766.425781 326.953125 765.09375 321.054688 763.621094 315.1875 C 762.148438 309.320312 760.527344 303.492188 758.769531 297.703125 C 757.007812 291.914062 755.109375 286.171875 753.066406 280.476562 C 751.023438 274.78125 748.84375 269.140625 746.527344 263.554688 C 744.207031 257.964844 741.753906 252.4375 739.164062 246.96875 C 736.574219 241.5 733.855469 236.101562 731 230.765625 C 728.144531 225.429688 725.164062 220.171875 722.050781 214.980469 C 718.9375 209.792969 715.699219 204.683594 712.339844 199.65625 C 708.976562 194.625 705.492188 189.683594 701.886719 184.824219 C 698.28125 179.964844 694.5625 175.199219 690.722656 170.519531 C 686.882812 165.84375 682.933594 161.265625 678.867188 156.785156 C 674.804688 152.300781 670.636719 147.921875 666.355469 143.644531 C 662.078125 139.363281 657.699219 135.195312 653.214844 131.132812 C 648.734375 127.066406 644.15625 123.117188 639.480469 119.277344 C 634.800781 115.4375 630.035156 111.71875 625.175781 108.113281 C 620.316406 104.507812 615.375 101.023438 610.34375 97.660156 C 605.316406 94.296875 600.207031 91.0625 595.019531 87.949219 C 589.828125 84.835938 584.570312 81.855469 579.234375 79 C 573.898438 76.144531 568.5 73.425781 563.03125 70.835938 C 557.5625 68.246094 552.035156 65.792969 546.445312 63.472656 C 540.859375 61.15625 535.21875 58.976562 529.523438 56.933594 C 523.828125 54.890625 518.085938 52.992188 512.296875 51.230469 C 506.507812 49.46875 500.679688 47.851562 494.8125 46.378906 C 488.945312 44.90625 483.046875 43.574219 477.113281 42.390625 C 471.179688 41.203125 465.222656 40.164062 459.238281 39.273438 C 453.253906 38.378906 447.253906 37.632812 441.230469 37.035156 C 435.210938 36.4375 429.179688 35.984375 423.136719 35.683594 C 417.097656 35.378906 411.050781 35.222656 405 35.21875 Z M 405 35.21875 " fill-opacity="1" fill-rule="nonzero"/><path fill="#7c8591" d="M 598.578125 362.386719 L 598.539062 362.34375 L 417.449219 181.257812 C 417.042969 180.847656 416.613281 180.460938 416.167969 180.097656 C 415.722656 179.730469 415.261719 179.386719 414.78125 179.066406 C 414.300781 178.746094 413.808594 178.453125 413.300781 178.179688 C 412.789062 177.90625 412.269531 177.660156 411.738281 177.441406 C 411.203125 177.21875 410.664062 177.027344 410.109375 176.859375 C 409.558594 176.691406 409 176.550781 408.433594 176.441406 C 407.867188 176.328125 407.300781 176.242188 406.726562 176.1875 C 406.152344 176.128906 405.578125 176.101562 405 176.101562 C 404.421875 176.101562 403.847656 176.128906 403.273438 176.1875 C 402.699219 176.242188 402.132812 176.328125 401.566406 176.441406 C 401 176.550781 400.441406 176.691406 399.890625 176.859375 C 399.335938 177.027344 398.796875 177.21875 398.261719 177.441406 C 397.730469 177.660156 397.210938 177.90625 396.699219 178.179688 C 396.191406 178.453125 395.699219 178.746094 395.21875 179.066406 C 394.738281 179.386719 394.277344 179.730469 393.832031 180.097656 C 393.386719 180.460938 392.957031 180.847656 392.550781 181.257812 L 211.460938 362.34375 L 211.421875 362.386719 L 181.246094 392.5625 C 180.851562 392.972656 180.476562 393.398438 180.121094 393.847656 C 179.765625 394.292969 179.433594 394.757812 179.125 395.234375 C 178.8125 395.714844 178.527344 396.207031 178.265625 396.714844 C 178.003906 397.21875 177.769531 397.738281 177.558594 398.269531 C 177.347656 398.796875 177.160156 399.335938 177 399.882812 C 176.84375 400.433594 176.710938 400.984375 176.605469 401.546875 C 176.5 402.105469 176.421875 402.671875 176.371094 403.238281 C 176.320312 403.808594 176.300781 404.375 176.304688 404.945312 C 176.308594 405.515625 176.339844 406.085938 176.402344 406.652344 C 176.460938 407.21875 176.550781 407.785156 176.664062 408.34375 C 176.78125 408.902344 176.921875 409.453125 177.089844 409.996094 C 177.257812 410.542969 177.453125 411.078125 177.671875 411.601562 C 177.894531 412.128906 178.140625 412.644531 178.410156 413.144531 C 178.679688 413.648438 178.972656 414.136719 179.292969 414.609375 C 179.609375 415.082031 179.949219 415.539062 180.3125 415.980469 C 180.675781 416.421875 181.058594 416.84375 181.460938 417.246094 C 181.863281 417.648438 182.285156 418.03125 182.726562 418.394531 C 183.167969 418.757812 183.625 419.097656 184.097656 419.414062 C 184.570312 419.730469 185.058594 420.027344 185.5625 420.296875 C 186.0625 420.566406 186.578125 420.8125 187.101562 421.03125 C 187.628906 421.253906 188.164062 421.449219 188.710938 421.617188 C 189.253906 421.785156 189.804688 421.925781 190.363281 422.042969 C 190.921875 422.15625 191.484375 422.246094 192.054688 422.304688 C 192.621094 422.363281 193.1875 422.398438 193.757812 422.402344 C 194.328125 422.40625 194.898438 422.382812 195.464844 422.335938 C 196.035156 422.285156 196.597656 422.207031 197.160156 422.101562 C 197.71875 421.996094 198.273438 421.863281 198.820312 421.703125 C 199.371094 421.546875 199.910156 421.359375 200.4375 421.148438 C 200.96875 420.9375 201.484375 420.699219 201.992188 420.4375 C 202.5 420.175781 202.992188 419.890625 203.472656 419.582031 C 203.949219 419.273438 204.414062 418.941406 204.859375 418.585938 C 205.304688 418.230469 205.734375 417.855469 206.144531 417.460938 L 206.28125 417.324219 L 206.28125 581.085938 C 206.285156 582.816406 206.371094 584.542969 206.542969 586.261719 C 206.714844 587.984375 206.96875 589.691406 207.308594 591.386719 C 207.644531 593.085938 208.066406 594.761719 208.570312 596.414062 C 209.074219 598.070312 209.65625 599.695312 210.320312 601.292969 C 210.980469 602.890625 211.722656 604.453125 212.539062 605.976562 C 213.355469 607.503906 214.242188 608.984375 215.203125 610.421875 C 216.164062 611.859375 217.195312 613.246094 218.292969 614.582031 C 219.390625 615.921875 220.550781 617.199219 221.773438 618.421875 C 222.996094 619.644531 224.273438 620.804688 225.613281 621.902344 C 226.949219 623 228.335938 624.03125 229.773438 624.992188 C 231.210938 625.953125 232.691406 626.839844 234.21875 627.65625 C 235.742188 628.472656 237.304688 629.214844 238.902344 629.875 C 240.5 630.539062 242.125 631.121094 243.78125 631.625 C 245.433594 632.128906 247.109375 632.550781 248.808594 632.886719 C 250.503906 633.226562 252.210938 633.480469 253.933594 633.652344 C 255.652344 633.824219 257.378906 633.910156 259.109375 633.914062 L 334.566406 633.914062 C 335.140625 633.914062 335.71875 633.882812 336.292969 633.828125 C 336.863281 633.773438 337.433594 633.6875 338 633.574219 C 338.566406 633.460938 339.125 633.320312 339.675781 633.15625 C 340.230469 632.988281 340.769531 632.792969 341.304688 632.574219 C 341.835938 632.351562 342.355469 632.105469 342.867188 631.832031 C 343.375 631.5625 343.867188 631.265625 344.347656 630.945312 C 344.828125 630.625 345.289062 630.28125 345.734375 629.914062 C 346.183594 629.550781 346.609375 629.164062 347.015625 628.753906 C 347.425781 628.347656 347.8125 627.921875 348.175781 627.476562 C 348.542969 627.027344 348.886719 626.566406 349.207031 626.085938 C 349.527344 625.609375 349.824219 625.113281 350.09375 624.605469 C 350.367188 624.097656 350.613281 623.574219 350.832031 623.042969 C 351.054688 622.511719 351.25 621.96875 351.414062 621.414062 C 351.582031 620.863281 351.722656 620.304688 351.835938 619.738281 C 351.949219 619.175781 352.03125 618.605469 352.089844 618.03125 C 352.144531 617.457031 352.175781 616.882812 352.175781 616.304688 L 352.175781 510.652344 C 352.175781 508.921875 352.257812 507.195312 352.429688 505.472656 C 352.597656 503.753906 352.851562 502.042969 353.1875 500.347656 C 353.527344 498.648438 353.945312 496.972656 354.449219 495.316406 C 354.949219 493.660156 355.53125 492.035156 356.195312 490.4375 C 356.855469 488.839844 357.597656 487.277344 358.410156 485.75 C 359.226562 484.222656 360.117188 482.742188 361.078125 481.304688 C 362.039062 479.863281 363.066406 478.476562 364.164062 477.140625 C 365.261719 475.800781 366.421875 474.523438 367.644531 473.296875 C 368.871094 472.074219 370.148438 470.914062 371.488281 469.816406 C 372.824219 468.71875 374.210938 467.691406 375.652344 466.730469 C 377.089844 465.769531 378.570312 464.878906 380.097656 464.0625 C 381.625 463.25 383.1875 462.507812 384.785156 461.847656 C 386.382812 461.183594 388.007812 460.601562 389.664062 460.101562 C 391.320312 459.597656 392.996094 459.179688 394.695312 458.839844 C 396.390625 458.503906 398.101562 458.25 399.820312 458.082031 C 401.542969 457.910156 403.269531 457.824219 405 457.824219 C 406.730469 457.824219 408.457031 457.910156 410.179688 458.082031 C 411.898438 458.25 413.609375 458.503906 415.304688 458.839844 C 417.003906 459.179688 418.679688 459.597656 420.335938 460.101562 C 421.988281 460.601562 423.617188 461.183594 425.214844 461.847656 C 426.8125 462.507812 428.375 463.25 429.902344 464.0625 C 431.429688 464.878906 432.910156 465.769531 434.347656 466.730469 C 435.785156 467.691406 437.175781 468.71875 438.511719 469.816406 C 439.851562 470.914062 441.128906 472.074219 442.355469 473.296875 C 443.578125 474.523438 444.738281 475.800781 445.835938 477.140625 C 446.933594 478.476562 447.960938 479.863281 448.921875 481.304688 C 449.882812 482.742188 450.773438 484.222656 451.589844 485.75 C 452.402344 487.277344 453.144531 488.839844 453.804688 490.4375 C 454.46875 492.035156 455.050781 493.660156 455.550781 495.316406 C 456.054688 496.972656 456.472656 498.648438 456.8125 500.347656 C 457.148438 502.042969 457.402344 503.753906 457.570312 505.472656 C 457.742188 507.195312 457.824219 508.921875 457.824219 510.652344 L 457.824219 616.304688 C 457.824219 616.882812 457.855469 617.457031 457.910156 618.03125 C 457.96875 618.605469 458.050781 619.175781 458.164062 619.738281 C 458.277344 620.304688 458.417969 620.863281 458.585938 621.414062 C 458.75 621.96875 458.945312 622.511719 459.167969 623.042969 C 459.386719 623.574219 459.632812 624.097656 459.90625 624.605469 C 460.175781 625.113281 460.472656 625.609375 460.792969 626.085938 C 461.113281 626.566406 461.457031 627.027344 461.824219 627.476562 C 462.1875 627.921875 462.574219 628.347656 462.984375 628.753906 C 463.390625 629.164062 463.816406 629.550781 464.265625 629.914062 C 464.710938 630.28125 465.171875 630.625 465.652344 630.945312 C 466.132812 631.265625 466.625 631.5625 467.132812 631.832031 C 467.644531 632.105469 468.164062 632.351562 468.695312 632.574219 C 469.230469 632.792969 469.769531 632.988281 470.324219 633.15625 C 470.875 633.320312 471.433594 633.460938 472 633.574219 C 472.566406 633.6875 473.136719 633.773438 473.707031 633.828125 C 474.28125 633.882812 474.859375 633.914062 475.433594 633.914062 L 550.890625 633.914062 C 552.621094 633.910156 554.347656 633.824219 556.066406 633.652344 C 557.789062 633.480469 559.496094 633.226562 561.191406 632.886719 C 562.890625 632.550781 564.566406 632.128906 566.21875 631.625 C 567.875 631.121094 569.5 630.539062 571.097656 629.875 C 572.695312 629.214844 574.257812 628.472656 575.78125 627.65625 C 577.308594 626.839844 578.789062 625.953125 580.226562 624.992188 C 581.664062 624.03125 583.050781 623 584.386719 621.902344 C 585.726562 620.804688 587.003906 619.644531 588.226562 618.421875 C 589.449219 617.199219 590.609375 615.921875 591.707031 614.582031 C 592.804688 613.246094 593.835938 611.859375 594.796875 610.421875 C 595.757812 608.984375 596.644531 607.503906 597.460938 605.976562 C 598.277344 604.453125 599.019531 602.890625 599.679688 601.292969 C 600.34375 599.695312 600.925781 598.070312 601.429688 596.414062 C 601.933594 594.761719 602.355469 593.085938 602.691406 591.386719 C 603.03125 589.691406 603.285156 587.984375 603.457031 586.261719 C 603.628906 584.542969 603.714844 582.816406 603.71875 581.085938 L 603.71875 417.324219 L 603.855469 417.464844 C 604.265625 417.859375 604.695312 418.234375 605.140625 418.589844 C 605.585938 418.945312 606.050781 419.277344 606.527344 419.585938 C 607.007812 419.894531 607.5 420.179688 608.007812 420.441406 C 608.515625 420.703125 609.03125 420.941406 609.5625 421.152344 C 610.089844 421.363281 610.628906 421.550781 611.179688 421.707031 C 611.726562 421.867188 612.28125 422 612.839844 422.105469 C 613.402344 422.210938 613.964844 422.289062 614.535156 422.339844 C 615.101562 422.386719 615.671875 422.410156 616.242188 422.40625 C 616.8125 422.402344 617.378906 422.367188 617.949219 422.308594 C 618.515625 422.25 619.078125 422.160156 619.636719 422.046875 C 620.195312 421.929688 620.746094 421.789062 621.292969 421.621094 C 621.835938 421.453125 622.371094 421.257812 622.898438 421.035156 C 623.421875 420.816406 623.9375 420.570312 624.441406 420.300781 C 624.941406 420.03125 625.429688 419.734375 625.902344 419.417969 C 626.375 419.101562 626.832031 418.761719 627.273438 418.398438 C 627.714844 418.035156 628.136719 417.652344 628.539062 417.25 C 628.941406 416.847656 629.324219 416.425781 629.6875 415.984375 C 630.050781 415.542969 630.390625 415.085938 630.707031 414.613281 C 631.027344 414.140625 631.320312 413.652344 631.589844 413.148438 C 631.859375 412.648438 632.105469 412.132812 632.328125 411.605469 C 632.546875 411.082031 632.742188 410.546875 632.910156 410 C 633.078125 409.457031 633.222656 408.902344 633.335938 408.34375 C 633.449219 407.785156 633.539062 407.222656 633.597656 406.65625 C 633.660156 406.089844 633.691406 405.519531 633.695312 404.949219 C 633.703125 404.378906 633.679688 403.8125 633.628906 403.242188 C 633.578125 402.675781 633.5 402.109375 633.394531 401.550781 C 633.289062 400.988281 633.15625 400.4375 633 399.886719 C 632.839844 399.339844 632.65625 398.800781 632.441406 398.273438 C 632.230469 397.742188 631.996094 397.222656 631.734375 396.71875 C 631.472656 396.210938 631.1875 395.71875 630.875 395.238281 C 630.566406 394.757812 630.234375 394.296875 629.878906 393.851562 C 629.523438 393.402344 629.148438 392.976562 628.753906 392.566406 Z M 568.5 581.085938 C 568.5 581.664062 568.46875 582.238281 568.414062 582.8125 C 568.355469 583.386719 568.269531 583.953125 568.15625 584.519531 C 568.042969 585.085938 567.902344 585.644531 567.734375 586.195312 C 567.566406 586.746094 567.371094 587.289062 567.152344 587.820312 C 566.929688 588.351562 566.683594 588.871094 566.410156 589.378906 C 566.136719 589.890625 565.84375 590.382812 565.523438 590.863281 C 565.203125 591.339844 564.859375 591.804688 564.492188 592.25 C 564.125 592.695312 563.738281 593.121094 563.332031 593.527344 C 562.925781 593.933594 562.5 594.320312 562.054688 594.6875 C 561.609375 595.054688 561.144531 595.398438 560.667969 595.71875 C 560.1875 596.039062 559.695312 596.332031 559.183594 596.605469 C 558.675781 596.878906 558.15625 597.125 557.625 597.347656 C 557.09375 597.566406 556.550781 597.761719 556 597.929688 C 555.449219 598.097656 554.890625 598.238281 554.324219 598.351562 C 553.757812 598.464844 553.191406 598.550781 552.617188 598.609375 C 552.042969 598.664062 551.46875 598.695312 550.890625 598.695312 L 493.042969 598.695312 L 493.042969 510.652344 C 493.042969 509.210938 493.007812 507.769531 492.9375 506.332031 C 492.867188 504.894531 492.761719 503.457031 492.621094 502.023438 C 492.476562 500.589844 492.300781 499.160156 492.089844 497.734375 C 491.878906 496.308594 491.632812 494.890625 491.351562 493.476562 C 491.070312 492.0625 490.753906 490.65625 490.40625 489.257812 C 490.054688 487.863281 489.671875 486.472656 489.253906 485.09375 C 488.832031 483.714844 488.382812 482.347656 487.898438 480.992188 C 487.410156 479.632812 486.894531 478.289062 486.339844 476.960938 C 485.789062 475.628906 485.207031 474.3125 484.589844 473.007812 C 483.972656 471.707031 483.328125 470.417969 482.648438 469.148438 C 481.96875 467.878906 481.257812 466.625 480.515625 465.390625 C 479.777344 464.152344 479.007812 462.9375 478.207031 461.738281 C 477.40625 460.539062 476.574219 459.363281 475.71875 458.203125 C 474.859375 457.046875 473.972656 455.910156 473.058594 454.796875 C 472.144531 453.683594 471.203125 452.59375 470.234375 451.527344 C 469.269531 450.457031 468.273438 449.414062 467.257812 448.394531 C 466.238281 447.378906 465.195312 446.382812 464.125 445.417969 C 463.058594 444.449219 461.96875 443.507812 460.855469 442.59375 C 459.742188 441.679688 458.605469 440.792969 457.449219 439.933594 C 456.289062 439.078125 455.113281 438.246094 453.914062 437.445312 C 452.714844 436.644531 451.5 435.875 450.261719 435.132812 C 449.027344 434.394531 447.773438 433.683594 446.503906 433.003906 C 445.234375 432.324219 443.945312 431.679688 442.644531 431.0625 C 441.339844 430.445312 440.023438 429.863281 438.691406 429.308594 C 437.363281 428.757812 436.015625 428.242188 434.660156 427.753906 C 433.304688 427.269531 431.9375 426.816406 430.558594 426.398438 C 429.179688 425.980469 427.789062 425.597656 426.394531 425.246094 C 424.996094 424.898438 423.589844 424.582031 422.175781 424.300781 C 420.761719 424.019531 419.34375 423.773438 417.917969 423.5625 C 416.492188 423.351562 415.0625 423.175781 413.628906 423.03125 C 412.195312 422.890625 410.757812 422.785156 409.320312 422.714844 C 407.882812 422.644531 406.441406 422.609375 405 422.609375 C 403.558594 422.609375 402.117188 422.644531 400.679688 422.714844 C 399.242188 422.785156 397.804688 422.890625 396.371094 423.03125 C 394.9375 423.175781 393.507812 423.351562 392.082031 423.5625 C 390.65625 423.773438 389.238281 424.019531 387.824219 424.300781 C 386.410156 424.582031 385.003906 424.898438 383.605469 425.246094 C 382.210938 425.597656 380.820312 425.980469 379.441406 426.398438 C 378.0625 426.816406 376.695312 427.269531 375.339844 427.753906 C 373.980469 428.242188 372.636719 428.757812 371.308594 429.308594 C 369.976562 429.863281 368.660156 430.445312 367.355469 431.0625 C 366.054688 431.679688 364.765625 432.324219 363.496094 433.003906 C 362.226562 433.683594 360.972656 434.394531 359.738281 435.132812 C 358.5 435.875 357.285156 436.644531 356.085938 437.445312 C 354.886719 438.246094 353.710938 439.078125 352.550781 439.933594 C 351.394531 440.792969 350.257812 441.679688 349.144531 442.59375 C 348.03125 443.507812 346.941406 444.449219 345.875 445.417969 C 344.804688 446.382812 343.761719 447.378906 342.742188 448.394531 C 341.726562 449.414062 340.730469 450.457031 339.765625 451.527344 C 338.796875 452.59375 337.855469 453.683594 336.941406 454.796875 C 336.027344 455.910156 335.140625 457.046875 334.28125 458.203125 C 333.425781 459.363281 332.59375 460.539062 331.792969 461.738281 C 330.992188 462.9375 330.222656 464.152344 329.484375 465.386719 C 328.742188 466.625 328.03125 467.878906 327.351562 469.148438 C 326.671875 470.417969 326.027344 471.707031 325.410156 473.007812 C 324.792969 474.3125 324.210938 475.628906 323.660156 476.960938 C 323.105469 478.289062 322.589844 479.632812 322.101562 480.992188 C 321.617188 482.347656 321.164062 483.714844 320.746094 485.09375 C 320.328125 486.472656 319.945312 487.863281 319.59375 489.257812 C 319.246094 490.65625 318.929688 492.0625 318.648438 493.476562 C 318.367188 494.890625 318.121094 496.308594 317.910156 497.734375 C 317.699219 499.160156 317.523438 500.589844 317.378906 502.023438 C 317.238281 503.457031 317.132812 504.894531 317.0625 506.332031 C 316.992188 507.769531 316.957031 509.210938 316.957031 510.652344 L 316.957031 598.695312 L 259.109375 598.695312 C 258.53125 598.695312 257.957031 598.664062 257.382812 598.609375 C 256.808594 598.550781 256.242188 598.464844 255.675781 598.351562 C 255.109375 598.238281 254.550781 598.097656 254 597.929688 C 253.449219 597.761719 252.90625 597.566406 252.375 597.347656 C 251.84375 597.125 251.324219 596.878906 250.816406 596.605469 C 250.304688 596.335938 249.8125 596.039062 249.332031 595.71875 C 248.855469 595.398438 248.390625 595.054688 247.945312 594.6875 C 247.5 594.320312 247.074219 593.933594 246.667969 593.527344 C 246.261719 593.121094 245.875 592.695312 245.507812 592.25 C 245.140625 591.804688 244.796875 591.339844 244.476562 590.863281 C 244.15625 590.382812 243.863281 589.890625 243.589844 589.378906 C 243.316406 588.871094 243.070312 588.351562 242.847656 587.820312 C 242.628906 587.289062 242.433594 586.746094 242.265625 586.195312 C 242.097656 585.644531 241.957031 585.085938 241.84375 584.519531 C 241.730469 583.953125 241.644531 583.386719 241.585938 582.8125 C 241.53125 582.238281 241.5 581.664062 241.5 581.085938 L 241.5 382.109375 L 405 218.59375 L 568.5 382.109375 Z M 568.5 581.085938 " fill-opacity="1" fill-rule="nonzero"/></svg>